<?xml version="1.0" encoding="UTF-8" standalone="no"?>
<!-- Created with Inkscape (http://www.inkscape.org/) -->

<svg
   width="250.83057mm"
   height="93.600723mm"
   viewBox="0 0 250.83057 93.600723"
   version="1.1"
   id="svg480953"
   inkscape:version="1.1.2 (0a00cf5339, 2022-02-04)"
   sodipodi:docname="logo.svg"
   xmlns:inkscape="http://www.inkscape.org/namespaces/inkscape"
   xmlns:sodipodi="http://sodipodi.sourceforge.net/DTD/sodipodi-0.dtd"
   xmlns="http://www.w3.org/2000/svg"
   xmlns:svg="http://www.w3.org/2000/svg">
  <sodipodi:namedview
     id="namedview480955"
     pagecolor="#ffffff"
     bordercolor="#666666"
     borderopacity="1.0"
     inkscape:pageshadow="2"
     inkscape:pageopacity="0.0"
     inkscape:pagecheckerboard="0"
     inkscape:document-units="mm"
     showgrid="false"
     fit-margin-top="5"
     fit-margin-left="5"
     fit-margin-right="5"
     fit-margin-bottom="5"
     inkscape:zoom="0.84377755"
     inkscape:cx="322.35984"
     inkscape:cy="167.10565"
     inkscape:window-width="2554"
     inkscape:window-height="1365"
     inkscape:window-x="1920"
     inkscape:window-y="32"
     inkscape:window-maximized="1"
     inkscape:current-layer="layer1" />
  <defs
     id="defs480950" />
  <g
     inkscape:label="Layer 1"
     inkscape:groupmode="layer"
     id="layer1"
     transform="translate(-12.508706,-32.033479)">
    <g
       aria-label="[ragged]"
       id="text485445"
       style="font-weight:bold;font-size:64.8093px;line-height:1.25;font-family:'DejaVu Sans';-inkscape-font-specification:'DejaVu Sans Bold';opacity:1;vector-effect:none;fill:#808080;stroke-width:4.30962;marker:none;stop-color:#000000;stop-opacity:1">
      <path
         d="M 34.683172,52.90848 H 17.508706 v 61.3096 h 17.174466 v -7.58269 h -7.45307 V 60.555977 h 7.45307 z"
         style="font-family:'Fira Sans';-inkscape-font-specification:'Fira Sans Bold';vector-effect:none;stop-color:#000000;stop-opacity:1"
         id="path525631" />
      <path
         d="m 58.986623,70.860657 c -3.953368,0 -7.323451,2.851609 -8.878875,7.647497 l -0.842521,-6.675358 h -8.943684 v 34.413744 h 10.23987 V 89.201689 c 1.101759,-5.249553 2.85161,-8.425209 7.129024,-8.425209 1.166567,0 2.009088,0.194428 3.110846,0.453665 l 1.620233,-9.915823 c -1.101758,-0.324047 -2.138707,-0.453665 -3.434893,-0.453665 z"
         style="font-family:'Fira Sans';-inkscape-font-specification:'Fira Sans Bold';vector-effect:none;stop-color:#000000;stop-opacity:1"
         id="path525633" />
      <path
         d="M 91.391101,96.265904 V 82.915187 c 0,-7.971544 -4.277414,-12.184149 -14.258047,-12.184149 -3.888558,0 -8.619637,0.90733 -12.96186,2.527563 l 2.333135,6.740167 c 3.434893,-1.166567 6.804977,-1.81466 9.008493,-1.81466 4.212605,0 5.832837,1.231377 5.832837,5.314363 v 1.490614 h -3.499702 c -10.434298,0 -16.137517,4.082986 -16.137517,11.600865 0,6.2865 4.342224,10.75834 11.21201,10.75834 4.082986,0 7.906735,-1.36099 10.369488,-5.18474 1.555424,3.43489 4.212605,4.66627 8.295591,4.99032 l 2.138707,-6.67536 c -1.620232,-0.583285 -2.333135,-1.555425 -2.333135,-4.212606 z m -15.489423,3.758936 c -2.527563,0 -4.018177,-1.620229 -4.018177,-4.34222 0,-3.434893 2.268326,-5.055126 6.934595,-5.055126 h 2.527563 v 6.092075 c -1.231377,2.073897 -3.046037,3.305271 -5.443981,3.305271 z"
         style="font-family:'Fira Sans';-inkscape-font-specification:'Fira Sans Bold';vector-effect:none;stop-color:#000000;stop-opacity:1"
         id="path525635" />
      <path
         d="m 128.20267,66.259196 c -4.1478,2.462754 -8.55483,4.66627 -16.20233,4.471842 -9.00849,0 -15.100567,4.795888 -15.100567,12.573005 0,4.471842 1.749852,7.517879 6.156887,9.851014 -2.46276,1.555423 -4.082989,4.082986 -4.082989,6.610549 0,3.694134 3.046039,6.804974 10.563919,6.804974 h 4.99031 c 3.4349,0 4.92551,1.361 4.92551,3.37009 0,2.20351 -1.4258,3.88855 -7.45307,3.88855 -6.22169,0 -7.51788,-1.29618 -7.51788,-4.27741 h -9.202919 c 0,6.80498 3.434893,11.08239 16.461559,11.08239 11.7953,0 18.01699,-4.34222 18.01699,-11.40644 0,-5.76802 -5.11993,-9.980628 -13.15629,-9.980628 h -5.18474 c -3.30528,0 -3.75894,-1.036949 -3.75894,-2.073898 0,-0.777712 0.38885,-1.555423 1.10176,-1.944279 1.23137,0.259237 2.52756,0.388856 3.95336,0.388856 8.94369,0 14.45248,-4.860698 14.45248,-11.536056 0,-4.471842 -2.13871,-6.999405 -6.48093,-8.878875 4.34222,0 7.51788,-0.388856 9.91582,-1.360995 z m -15.94309,11.21201 c 3.43489,0 5.18474,1.749851 5.18474,5.5736 0,3.953367 -1.81466,5.962456 -5.18474,5.962456 -3.11085,0 -5.18475,-2.073898 -5.18475,-5.832838 0,-3.564511 2.00909,-5.703218 5.18475,-5.703218 z"
         style="font-family:'Fira Sans';-inkscape-font-specification:'Fira Sans Bold';vector-effect:none;stop-color:#000000;stop-opacity:1"
         id="path525637" />
      <path
         d="m 163.91251,37.098291 c -4.1478,2.462754 -8.55483,4.66627 -16.20233,4.471842 -9.00849,0 -15.10057,4.795888 -15.10057,12.573005 0,4.471842 1.74985,7.517879 6.15689,9.851014 -2.46276,1.555423 -4.08299,4.082986 -4.08299,6.610549 0,3.694134 3.04604,6.804971 10.56392,6.804971 h 4.99031 c 3.4349,0 4.92551,1.361 4.92551,3.37009 0,2.203507 -1.4258,3.888547 -7.45307,3.888547 -6.22169,0 -7.51788,-1.29618 -7.51788,-4.277407 h -9.20292 c 0,6.804974 3.43489,11.082384 16.46156,11.082384 11.7953,0 18.01699,-4.34222 18.01699,-11.406434 0,-5.768017 -5.11994,-9.980625 -13.15629,-9.980625 h -5.18474 c -3.30528,0 -3.75894,-1.036949 -3.75894,-2.073898 0,-0.777712 0.38885,-1.555423 1.10175,-1.944279 1.23138,0.259237 2.52757,0.388856 3.95337,0.388856 8.94369,0 14.45248,-4.860698 14.45248,-11.536056 0,-4.471842 -2.13871,-6.999405 -6.48093,-8.878875 4.34222,0 7.51788,-0.388856 9.91582,-1.360995 z m -15.94309,11.21201 c 3.43489,0 5.18474,1.749851 5.18474,5.5736 0,3.953367 -1.81466,5.962456 -5.18474,5.962456 -3.11085,0 -5.18475,-2.073898 -5.18475,-5.832838 0,-3.564511 2.00909,-5.703218 5.18475,-5.703218 z"
         style="font-family:'Fira Sans';-inkscape-font-specification:'Fira Sans Bold';vector-effect:none;stop-color:#000000;stop-opacity:1"
         id="path525639" />
      <path
         d="m 198.90936,72.484168 c 0,-11.147201 -6.02727,-17.628131 -15.87828,-17.628131 -10.4343,0 -16.07271,8.165972 -16.07271,18.470651 0,10.758345 5.83284,18.146598 17.30409,18.146598 5.5736,0 9.98063,-2.073887 13.41552,-4.795877 l -4.2126,-5.703223 c -2.98123,2.073898 -5.44398,3.046038 -8.23078,3.046038 -4.21261,0 -7.12903,-1.685042 -7.84193,-7.841926 h 21.32226 c 0.12962,-1.036949 0.19443,-2.592372 0.19443,-3.69413 z m -10.04544,-2.462754 h -11.47125 c 0.45367,-6.156884 2.46275,-8.3604 5.89765,-8.3604 4.08298,0 5.50879,3.240465 5.5736,7.906735 z"
         style="font-family:'Fira Sans';-inkscape-font-specification:'Fira Sans Bold';vector-effect:none;stop-color:#000000;stop-opacity:1"
         id="path525641" />
      <path
         d="m 225.28664,41.181274 v 16.915228 c -2.00909,-2.009088 -4.79589,-3.240465 -8.16597,-3.240465 -8.49002,0 -14.06362,7.582689 -14.06362,18.211414 0,11.147198 4.34222,18.405835 13.09148,18.405835 4.66627,0 7.77711,-2.268317 9.7862,-5.119927 l 0.51848,4.018177 h 9.0733 V 42.283032 Z m -5.96246,42.77414 c -3.30527,0 -5.63841,-2.268325 -5.63841,-10.823153 0,-7.712308 2.59237,-10.823154 6.2217,-10.823154 2.26832,0 3.82374,1.101758 5.37917,2.916419 v 14.84133 c -1.62023,2.592372 -3.4997,3.888558 -5.96246,3.888558 z"
         style="font-family:'Fira Sans';-inkscape-font-specification:'Fira Sans Bold';vector-effect:none;stop-color:#000000;stop-opacity:1"
         id="path525643" />
      <path
         d="m 258.33928,37.033479 h -17.17446 v 7.647497 h 7.45307 v 46.0146 h -7.45307 v 7.647497 h 17.17446 z"
         style="font-family:'Fira Sans';-inkscape-font-specification:'Fira Sans Bold';vector-effect:none;stop-color:#000000;stop-opacity:1"
         id="path525645" />
    </g>
  </g>
</svg>
